<?xml version="1.0" standalone="no"?>
<!DOCTYPE svg PUBLIC "-//W3C//DTD SVG 20010904//EN"
 "http://www.w3.org/TR/2001/REC-SVG-20010904/DTD/svg10.dtd">
<svg version="1.0" xmlns="http://www.w3.org/2000/svg"
 width="188.000000pt" height="38.000000pt" viewBox="0 0 188.000000 38.000000"
 preserveAspectRatio="xMidYMid meet">

<g transform="translate(0.000000,38.000000) scale(0.100000,-0.100000)"
fill="#000000" stroke="none">
<path d="M97 223 c-25 -29 -21 -51 16 -73 26 -16 28 -20 12 -20 -12 0 -26 5
-33 12 -9 9 -12 7 -12 -9 0 -36 62 -46 101 -15 28 24 20 50 -21 65 -17 6 -30
15 -30 19 0 11 18 10 40 -2 10 -6 21 -6 24 -2 9 15 -11 33 -45 38 -26 4 -38 1
-52 -13z"/>
<path d="M241 222 c-33 -26 -33 -78 0 -104 25 -21 78 -20 105 3 17 14 18 69 1
92 -19 28 -78 33 -106 9z m68 -43 c12 -34 7 -49 -13 -49 -16 0 -41 54 -31 69
12 21 33 11 44 -20z"/>
<path d="M386 223 c13 -31 17 -103 5 -103 -6 0 -11 -4 -11 -10 0 -5 25 -10 55
-10 43 0 56 4 65 19 6 12 6 22 1 25 -5 3 -11 -1 -15 -9 -3 -8 -15 -15 -27 -15
-20 0 -21 4 -17 60 l4 60 -34 0 c-29 0 -33 -3 -26 -17z"/>
<path d="M517 234 c-4 -4 -2 -13 4 -21 7 -8 10 -34 7 -63 l-5 -50 35 0 c29 0
33 3 26 18 -9 19 -11 78 -4 102 4 11 -4 16 -25 18 -17 2 -34 0 -38 -4z"/>
<path d="M618 180 c3 -40 1 -60 -7 -60 -6 0 -11 -4 -11 -10 0 -5 24 -10 54
-10 66 0 106 26 106 71 0 46 -31 69 -93 69 l-53 0 4 -60z m80 28 c26 -26 8
-96 -22 -85 -11 5 -16 19 -16 52 0 46 13 58 38 33z"/>
<path d="M825 218 c-12 -43 -38 -98 -47 -98 -4 0 -8 -4 -8 -10 0 -5 11 -10 25
-10 16 0 25 6 25 15 0 9 9 15 25 15 18 0 23 -4 19 -15 -5 -12 2 -15 28 -15 47
0 50 6 25 45 -12 18 -30 47 -39 64 -20 36 -44 40 -53 9z m33 -56 c2 -7 -3 -12
-12 -12 -9 0 -16 7 -16 16 0 17 22 14 28 -4z"/>
<path d="M957 173 l1 -68 31 -3 c29 -3 30 -2 25 27 -8 38 13 43 22 6 4 -15 16
-28 30 -31 24 -6 52 4 38 15 -19 13 -32 50 -27 70 9 35 -14 51 -71 51 l-51 0
2 -67z m73 27 c0 -11 -4 -20 -10 -20 -5 0 -10 9 -10 20 0 11 5 20 10 20 6 0
10 -9 10 -20z"/>
<path d="M1125 170 l0 -70 30 0 30 0 0 70 0 70 -30 0 -30 0 0 -70z"/>
<path d="M1206 224 c-9 -23 5 -40 16 -20 8 14 38 23 38 11 0 -3 -14 -30 -31
-60 l-31 -55 65 0 c58 0 66 3 72 21 9 27 -4 39 -16 16 -6 -9 -19 -17 -30 -17
-20 0 -19 3 10 55 17 30 31 57 31 60 0 3 -27 5 -59 5 -45 0 -60 -4 -65 -16z"/>
<path d="M1350 231 c0 -6 5 -13 10 -16 6 -3 10 -24 10 -45 0 -21 -4 -42 -10
-45 -25 -16 -5 -25 54 -25 54 0 64 3 69 19 2 11 15 21 28 23 30 4 39 38 11 38
-12 0 -22 -9 -25 -21 -3 -12 -10 -18 -15 -15 -6 3 -12 -1 -16 -9 -3 -8 -17
-15 -31 -15 -18 0 -25 5 -25 20 0 11 5 20 10 20 6 0 10 -4 10 -10 0 -5 5 -10
10 -10 6 0 10 14 10 30 0 17 -4 30 -10 30 -5 0 -10 -4 -10 -10 0 -5 -4 -10
-10 -10 -5 0 -10 9 -10 20 0 14 7 20 24 20 13 0 26 -6 29 -12 2 -7 8 -10 12
-6 4 4 5 14 2 23 -5 11 -22 15 -67 15 -33 0 -60 -4 -60 -9z"/>
<path d="M1580 222 c-30 -24 -19 -58 23 -76 21 -10 26 -15 14 -15 -10 -1 -27
4 -39 10 -17 9 -19 8 -16 -7 5 -25 51 -40 86 -28 19 7 28 17 30 37 3 23 -2 29
-27 38 -17 6 -31 15 -31 20 0 12 27 11 35 -1 9 -15 25 -12 25 5 0 15 -37 35
-65 35 -7 0 -23 -8 -35 -18z"/>
<path d="M1705 170 l0 -71 60 3 c55 3 60 5 64 28 3 24 2 24 -16 7 -24 -21 -52
-22 -60 -2 -8 22 4 30 21 16 18 -15 31 13 16 37 -5 10 -10 12 -10 5 0 -19 -30
-16 -30 2 0 21 29 31 51 16 16 -9 19 -8 19 9 0 18 -7 20 -57 20 l-58 0 0 -70z"/>
</g>
</svg>
